<svg width="40" height="40" fill="none" xmlns="http://www.w3.org/2000/svg"><circle cx="20" cy="20" r="20" fill="#FFF2DF"/><path d="m31.713 8-10.158 7.449 1.889-4.39L31.714 8z" fill="#E17726" stroke="#E17726" stroke-width=".25" stroke-linecap="round" stroke-linejoin="round"/><path d="m8.281 8 10.068 7.518-1.798-4.459L8.28 8zM28.07 25.27l-2.703 4.091 5.788 1.58 1.658-5.582-4.743-.09zM7.219 25.359l1.648 5.582 5.777-1.58-2.693-4.091-4.732.089z" fill="#E27625" stroke="#E27625" stroke-width=".25" stroke-linecap="round" stroke-linejoin="round"/><path d="m14.319 18.36-1.608 2.404 5.727.258-.19-6.108-3.93 3.446zM25.674 18.36l-3.989-3.516-.13 6.178 5.727-.259-1.608-2.403zM14.64 29.37l3.467-1.66-2.984-2.304-.482 3.963zM21.898 27.71l3.457 1.66-.472-3.964-2.985 2.305z" fill="#E27625" stroke="#E27625" stroke-width=".25" stroke-linecap="round" stroke-linejoin="round"/><path d="m25.355 29.362-3.457-1.659.282 2.225-.03.943 3.205-1.51zM14.64 29.362l3.216 1.51-.02-.944.271-2.225-3.466 1.659z" fill="#D5BFB2" stroke="#D5BFB2" stroke-width=".25" stroke-linecap="round" stroke-linejoin="round"/><path d="m17.913 23.93-2.874-.834 2.03-.924.844 1.758zM22.094 23.93l.844-1.758 2.04.924-2.884.834z" fill="#233447" stroke="#233447" stroke-width=".25" stroke-linecap="round" stroke-linejoin="round"/><path d="m14.63 29.361.503-4.091-3.195.089 2.692 4.002zM24.86 25.27l.492 4.091 2.703-4.002-3.196-.09zM27.282 20.762l-5.727.258.532 2.91.844-1.758 2.04.924 2.31-2.334zM15.032 23.096l2.03-.924.844 1.758.532-2.91-5.727-.258 2.321 2.334z" fill="#CC6228" stroke="#CC6228" stroke-width=".25" stroke-linecap="round" stroke-linejoin="round"/><path d="m12.71 20.762 2.402 4.638-.08-2.304-2.321-2.334zM24.973 23.096l-.09 2.304 2.401-4.638-2.31 2.334zM18.447 21.016l-.533 2.91.673 3.436.151-4.529-.291-1.817zM21.547 21.016l-.281 1.807.14 4.54.674-3.437-.533-2.91z" fill="#E27525" stroke="#E27525" stroke-width=".25" stroke-linecap="round" stroke-linejoin="round"/><path d="m22.095 23.928-.673 3.436.482.338 2.984-2.304.09-2.304-2.883.834zM15.04 23.094l.08 2.304 2.984 2.304.482-.338-.673-3.436-2.874-.834z" fill="#F5841F" stroke="#F5841F" stroke-width=".25" stroke-linecap="round" stroke-linejoin="round"/><path d="m22.156 30.87.03-.945-.26-.218h-3.839l-.251.218.02.944-3.215-1.51 1.125.914 2.28 1.56h3.91l2.29-1.56 1.116-.914-3.206 1.51z" fill="#C0AC9D" stroke="#C0AC9D" stroke-width=".25" stroke-linecap="round" stroke-linejoin="round"/><path d="m21.898 27.709-.483-.338h-2.833l-.483.338-.27 2.225.25-.219h3.839l.26.219-.28-2.225z" fill="#161616" stroke="#161616" stroke-width=".25" stroke-linecap="round" stroke-linejoin="round"/><path d="m32.147 15.936.854-4.112L31.715 8l-9.817 7.2 3.778 3.16 5.336 1.539 1.175-1.361-.512-.368.814-.735-.623-.476.814-.616-.533-.407zM7 11.824l.864 4.112-.553.407.824.616-.623.476.814.735-.512.368 1.175 1.36 5.336-1.539 3.778-3.158L8.286 8 7 11.824z" fill="#763E1A" stroke="#763E1A" stroke-width=".25" stroke-linecap="round" stroke-linejoin="round"/><path d="m31.012 19.903-5.335-1.54 1.607 2.404-2.401 4.638 3.175-.04H32.8l-1.788-5.462zM14.333 18.363l-5.336 1.54-1.778 5.462h4.732l3.175.04-2.401-4.638 1.608-2.404zM21.558 21.024l.342-5.82 1.548-4.142h-6.893l1.547 4.142.342 5.82.13 1.828.01 4.519h2.834l.01-4.52.13-1.827z" fill="#F5841F" stroke="#F5841F" stroke-width=".25" stroke-linecap="round" stroke-linejoin="round"/></svg>